<?xml version="1.0" standalone="no"?>
<!DOCTYPE svg PUBLIC "-//W3C//DTD SVG 20010904//EN"
 "http://www.w3.org/TR/2001/REC-SVG-20010904/DTD/svg10.dtd">
<svg version="1.0" xmlns="http://www.w3.org/2000/svg"
 width="100.000000pt" height="100.000000pt" viewBox="0 0 100.000000 100.000000"
 preserveAspectRatio="xMidYMid meet">
<metadata>
Created by potrace 1.11, written by Peter Selinger 2001-2013
</metadata>
<g transform="translate(0.000000,100.000000) scale(0.100000,-0.100000)"
fill="#000000" stroke="none">
<path d="M170 985 c-21 -25 -7 -136 25 -201 20 -41 39 -64 73 -85 26 -16 52
-27 58 -25 6 2 16 1 22 -3 6 -4 -13 -26 -50 -56 -78 -65 -178 -172 -178 -191
0 -16 57 -44 90 -44 23 0 24 -6 5 -40 -21 -36 -19 -80 3 -81 22 -2 19 -2 76 6
47 7 48 7 40 -16 -12 -40 -12 -108 1 -119 8 -7 29 -4 66 8 l55 18 -10 -47
c-16 -78 3 -95 72 -62 29 14 37 14 40 4 7 -22 42 -53 55 -48 11 3 38 88 51
156 19 104 21 95 -19 114 -50 24 -75 81 -64 144 11 56 39 107 62 111 23 5 22
-19 -3 -61 -39 -67 -21 -149 37 -163 61 -16 109 58 91 140 -5 21 -7 41 -4 43
2 2 17 -2 33 -11 59 -30 67 14 15 82 -14 18 -23 34 -21 36 5 5 76 15 107 16
31 0 28 24 -9 60 -29 27 -48 34 -86 33 -9 -1 -13 14 -13 41 0 23 -8 56 -17 74
-25 44 -94 113 -138 137 l-37 19 -24 -29 -23 -29 -41 33 c-45 36 -73 37 -78 3
-4 -29 -14 -28 -64 8 -48 35 -74 27 -64 -22 3 -15 1 -30 -4 -33 -9 -6 -23 6
-73 63 -31 36 -39 38 -57 17z m460 -300 c10 -12 10 -21 2 -40 -15 -33 -49 -33
-64 1 -11 22 -10 28 7 40 24 18 40 18 55 -1z"/>
</g>
</svg>
